<svg id="شعار" xmlns="http://www.w3.org/2000/svg" width="69" height="74.18" viewBox="0 0 69 74.18">
  <defs>
    <style>
      .cls-1 {
        fill: #2a99bf;
      }

      .cls-1, .cls-2 {
        fill-rule: evenodd;
      }

      .cls-2 {
        fill: #fff;
      }
    </style>
  </defs>
  <path id="Shape_1_copy_4" data-name="Shape 1 copy 4" class="cls-1" d="M1405.9,1314.63a9.266,9.266,0,0,1,9.2,0l25.3,14.1a8.565,8.565,0,0,1,4.6,7.67v28.2a8.565,8.565,0,0,1-4.6,7.67l-25.3,14.1a9.266,9.266,0,0,1-9.2,0l-25.3-14.1a8.565,8.565,0,0,1-4.6-7.67v-28.2a8.565,8.565,0,0,1,4.6-7.67Z" transform="translate(-1376 -1313.41)"/>
  <path id="UI" class="cls-2" d="M1411.31,1326.53v9.05a3.691,3.691,0,0,1-1.08,2.8,3.863,3.863,0,0,1-2.77,1.03,3.59,3.59,0,0,1-3.77-3.83v-9.05h-1.14v9.05a4.572,4.572,0,0,0,1.37,3.51,5.036,5.036,0,0,0,3.54,1.27,5.092,5.092,0,0,0,3.58-1.27,4.672,4.672,0,0,0,1.65-3.51v-9.05h-1.38Zm6.66,0h-1.14v13.63h1.14v-13.63Zm-6.69,13.68v-3.83h1.54v3.83m-1.54,0v-3.83h1.54v3.83m-0.28-14.43h1.54v15.14h-1.54v-15.14Zm0.03,33.31v0.27a3.334,3.334,0,0,1-2.55,3.38,5.705,5.705,0,0,1,5.53,5.77c0,3.35-2.87,5.89-6.56,5.89h-1.84v-1.29h1.6c3.32,0,5.51-1.76,5.51-4.65a4.584,4.584,0,0,0-4.27-4.56,2.2,2.2,0,0,0-2.51,2.36h-1.16v0.02a5.215,5.215,0,0,1-.04-0.98,4.084,4.084,0,0,1,2.64-3.19c1.77-.68,2.36-1.28,2.36-2.64v-0.38h1.29Zm5.95,7.45v1.28h-1.57v-1.28h1.57Zm0,2.37v1.29h-1.57v-1.29h1.57Zm-14.32-13.83h5.12c2.16,0,3.25.89,3.25,2.67v1.6h-1.28v-1.18a1.551,1.551,0,0,0-.77-1.55,4.047,4.047,0,0,0-1.77-.27h-4.55v-1.27Zm11.17,0v1.29h-1.57v-1.29h1.57Zm-2.8-10.36v3.12c1.89,0.34,2.89,1.58,3.02,3.68h-1.24c0-1.68-.94-2.54-3.11-2.54h-7.04v-1.27h7.08v-2.99h1.29Zm0-3.49v3.83h-1.29v-3.83h1.29Zm0,0.24h-1.29m0,3.59v-3.83h1.29v3.83m0-3.59h-1.29" transform="translate(-1376 -1313.41)"/>
</svg>
